<svg width="21" height="22" viewBox="0 0 21 22" fill="none" xmlns="http://www.w3.org/2000/svg">
<g clip-path="url(#clip0_615_255)">
<path d="M9.07033 21.4743L9.00213 21.4486L7.41084 20.5328L5.81956 19.617L3.00071 17.9958L0.181861 16.3747L0.0909294 16.2876L0 16.2005V10.9887V5.77686L0.0909294 5.68964L0.181861 5.60242L4.61473 3.0516L9.04759 0.500788L9.16126 0.500395L9.27492 0.5L13.7078 3.05066L18.1407 5.60131L18.2316 5.68907L18.3225 5.77684L18.335 9.23922L18.3474 12.7016L18.4899 12.7605L18.6324 12.8193L18.9776 13.0436L19.3228 13.268L19.6897 13.636L20.0566 14.004L20.291 14.363L20.5255 14.722L20.6656 15.0578L20.8058 15.3937L20.9029 15.7417L21 16.0897L20.9993 16.8832L20.9986 17.6767L20.875 18.0848L20.7513 18.4928L20.5957 18.8226L20.4402 19.1523L20.2682 19.412L20.0963 19.6717L19.7339 20.0494L19.3715 20.4271L18.981 20.6876L18.5904 20.9481L18.2371 21.0948L17.8838 21.2415L17.5349 21.3321L17.1859 21.4228L16.6822 21.4491L16.1785 21.4755L15.7967 21.4198L15.4149 21.3641L15.0501 21.2493L14.6853 21.1346L14.3393 20.9613L13.9934 20.788L13.621 20.5082L13.2487 20.2284L12.9706 19.9047L12.6926 19.581L12.6551 19.5661L12.6176 19.5511L10.969 20.5004L9.32039 21.4497L9.22946 21.4749L9.13853 21.5L9.07033 21.4743ZM17.345 20.69L17.7315 20.5981L18.1432 20.3989L18.5549 20.1997L18.886 19.9413L19.2171 19.683L19.487 19.3442L19.7569 19.0055L19.9588 18.5905L20.1607 18.1754L20.2529 17.79L20.3451 17.4046L20.3454 16.8776L20.3458 16.3507L20.2337 15.9102L20.1217 15.4697L19.9158 15.0837L19.7099 14.6978L19.4728 14.4006C19.4728 14.4006 19.3254 14.193 19.2357 14.1034C19.1324 14.0003 19.0071 13.9216 18.8928 13.8307C18.7785 13.7398 18.6739 13.6352 18.5499 13.5581C18.4219 13.4785 18.2771 13.4293 18.1407 13.365C18.0043 13.3006 17.8729 13.2244 17.7315 13.1719C17.6357 13.1363 17.5345 13.1174 17.436 13.0901C17.3375 13.0628 17.241 13.0267 17.1405 13.0083C16.9084 12.966 16.6707 12.9439 16.4358 12.9439C16.2009 12.9439 15.9638 12.9767 15.731 13.0083C15.6298 13.0221 15.4355 13.0901 15.4355 13.0901L15.14 13.1719L14.7308 13.3656L14.3216 13.5593L13.988 13.8213L13.6544 14.0834L13.378 14.4291L13.1016 14.7748L12.908 15.1828L12.7144 15.5909L12.6324 15.8856L12.5504 16.1804V16.8832V17.586L12.6324 17.8807L12.7144 18.1754L12.908 18.5835L13.1016 18.9916L13.375 19.3335L13.6484 19.6755L13.9464 19.912L14.2444 20.1485L14.6319 20.354L15.0193 20.5596L15.4434 20.6689L15.8674 20.7781L16.413 20.7801L16.9586 20.782L17.345 20.69ZM15.6981 18.8216L15.6251 18.7649L14.871 17.8626L14.117 16.9603V16.8163V16.6723L14.2222 16.5737L14.3274 16.4751H14.4565H14.5856L14.7493 16.652L14.9131 16.8288L15.3902 17.3977L15.8674 17.9666L15.8996 17.969L15.9317 17.9714L17.123 16.4061L18.3142 14.8409L18.4289 14.8122L18.5435 14.7835L18.6598 14.8485L18.776 14.9136L18.8205 15.04L18.8651 15.1663L18.7984 15.2729L18.7317 15.3794L17.4424 17.0721L16.1531 18.7649L16.0811 18.8216L16.0091 18.8782H15.8901H15.7711L15.6981 18.8216ZM8.78638 15.8357L8.7748 11.1609L4.77385 8.85434L0.772906 6.54775L0.738595 6.54638L0.704284 6.54501L0.715866 11.2188L0.727448 15.8926L2.81885 17.0976L4.91025 18.3025L6.8198 19.405L8.72934 20.5075L8.76365 20.509L8.79796 20.5105L8.78638 15.8357ZM10.962 19.7157L12.2756 18.9583L12.2897 18.9459L12.3037 18.9334L12.188 18.6594L12.0724 18.3854L11.979 18.046L11.8857 17.7065L11.8519 17.3223L11.8181 16.938L11.8498 16.5056L11.8815 16.0732L11.9787 15.699L12.076 15.3249L12.2278 14.9972L12.3796 14.6695L12.5826 14.3566L12.7856 14.0437L13.0709 13.7395L13.3563 13.4353L13.6571 13.2095L13.9579 12.9838L14.2989 12.8064L14.6398 12.629L14.9251 12.5334L15.2104 12.4379L15.5389 12.3682L15.8674 12.2986L16.413 12.2981L16.9586 12.2975L17.1859 12.3462L17.4132 12.3949L17.5155 12.4181L17.6178 12.4413V9.49318V6.54507H17.5829H17.548L15.5483 7.6958L13.5487 8.84653L13.5259 10.5563L13.5032 12.2661L13.3756 12.3755L13.2481 12.4849H13.1622H13.0764L12.9488 12.3755L12.8212 12.2661L12.8081 10.7885L12.7949 9.31095H12.7676H12.7403L11.1327 10.2438L9.52501 11.1767V15.8485V20.5202L9.58667 20.4966L9.64834 20.473L10.962 19.7157ZM10.8198 9.63976L12.4504 8.69891L12.4639 8.65357L12.4775 8.60823L8.73041 6.11999L4.98333 3.63176L3.02589 4.75905L1.06845 5.88635V5.91041V5.93446L5.10207 8.25754L9.13568 10.5806H9.16244H9.1892L10.8198 9.63976ZM15.2486 7.09128L17.2541 5.93706V5.91082V5.88458L13.2443 3.57531L9.23453 1.26604H9.16263H9.09073L7.37245 2.25655L5.65416 3.24707L5.6914 3.28108L5.72863 3.31509L9.45675 5.79164L13.1849 8.26818L13.214 8.25684L13.243 8.24549L15.2486 7.09128Z" fill="black"/>
</g>
<defs>
<clipPath id="clip0_615_255">
<rect width="21" height="21" fill="white" transform="translate(0 0.5)"/>
</clipPath>
</defs>
</svg>
