<svg width="20" height="20" viewBox="0 0 20 20" fill="none" xmlns="http://www.w3.org/2000/svg">
<g clip-path="url(#clip0_615_262)">
<path d="M2.09829 19.4865L1.96842 19.4729L1.80145 19.4304L1.63448 19.3878L1.45095 19.2964L1.26743 19.205L1.05795 19.0047L0.848461 18.8044L0.748722 18.6208L0.648983 18.4371L0.58633 18.2582L0.523679 18.0793L0.511839 12.8171L0.5 7.55483L0.538115 7.24013L0.57623 6.92544L0.701401 6.66127L0.826569 6.3971L1.01293 6.21032L1.19928 6.02354L1.37124 5.92254L1.54321 5.82154L1.71872 5.76327L1.89422 5.705L2.8404 5.68117L3.78658 5.65734L8.01655 3.18394L12.2465 0.710547L12.4506 0.620785L12.6547 0.531022L13.0072 0.515511L13.3597 0.5L13.6009 0.58159L13.842 0.663179L14.0674 0.824281L14.2928 0.985383L14.4014 1.12728L14.5099 1.26918L15.7727 3.48162L17.0355 5.69406L17.2148 5.7242L17.3942 5.75433L17.6293 5.86119L17.8645 5.96805L18.0514 6.14328L18.2383 6.31852L18.3508 6.48883L18.4634 6.65914L18.5367 6.89707L18.61 7.13499V8.61117V10.0873L18.7377 10.1336L18.8653 10.1798L19.0452 10.3419L19.2251 10.504L19.3236 10.6855L19.4221 10.8669L19.4611 11.1075L19.5 11.3481L19.4996 12.5754L19.4991 13.8026L19.4654 14.0365L19.4317 14.2703L19.3473 14.4455L19.263 14.6208L19.0911 14.789L18.9193 14.9572L18.7647 15.027L18.6101 15.0969V16.5456V17.9942L18.5548 18.2081L18.4995 18.422L18.4057 18.5902L18.3119 18.7584L18.1647 18.926L18.0176 19.0935L17.8378 19.2092L17.6579 19.3248L17.4383 19.4087L17.2187 19.4925L9.72346 19.4963L2.22824 19.5L2.09829 19.4865ZM17.2587 18.5852L17.4101 18.5163L17.5466 18.3754L17.6831 18.2345L17.7384 18.0479L17.7937 17.8613V16.5106V15.16H16.3447H14.8956L14.6286 15.1011L14.3615 15.0423L14.0647 14.8972L13.7678 14.7522L13.5565 14.5749L13.3452 14.3976L13.1783 14.1919L13.0114 13.9862L12.9021 13.7642L12.7928 13.5423L12.7307 13.3574L12.6685 13.1725L12.6313 12.8679L12.5942 12.5632L12.632 12.2904L12.6699 12.0175L12.7448 11.7758L12.8197 11.5341L12.9598 11.2935L13.0999 11.053L13.3597 10.7888L13.6194 10.5247L13.8497 10.3862L14.0799 10.2477L14.3415 10.156L14.6032 10.0644L14.9462 10.0282L15.2891 9.992L16.5431 9.99142L17.797 9.99085L17.7861 8.56837L17.7752 7.14589L17.6933 6.99251L17.6115 6.83914L17.4892 6.73585L17.367 6.63256L17.2372 6.57312L17.1073 6.51367H9.59351H2.07974L1.90417 6.58157L1.7286 6.64946L1.58603 6.8118L1.44346 6.97413L1.39983 7.12011L1.35619 7.26608L1.35648 12.617L1.35676 17.9679L1.44517 18.1582L1.53358 18.3485L1.6598 18.445L1.78603 18.5415L1.91426 18.5972L2.04248 18.653L9.5748 18.6536L17.1071 18.6541L17.2585 18.5852L17.2587 18.5852ZM18.3608 14.2912L18.4802 14.2405L18.5544 14.1572L18.6286 14.0738L18.6391 12.6449L18.6497 11.2159L18.5899 11.0897L18.5301 10.9634L18.4067 10.9047L18.2834 10.8461H16.6402H14.997L14.7564 10.9065L14.5159 10.967L14.3274 11.0771L14.1389 11.1872L13.9788 11.3421L13.8187 11.4969L13.6946 11.7014L13.5705 11.9059L13.5072 12.1254L13.4439 12.3449L13.4613 12.6647L13.4787 12.9844L13.5608 13.1979L13.643 13.4113L13.7641 13.5883L13.8852 13.7654L14.1032 13.9423L14.3212 14.1191L14.5269 14.1974L14.7325 14.2757L14.9181 14.3041L15.1036 14.3326L16.6725 14.3372L18.2414 14.3418L18.3608 14.2912ZM14.9671 13.3973L14.7934 13.3506L14.6648 13.2522L14.5361 13.1539L14.4395 12.9596L14.343 12.7653L14.3432 12.6145L14.3435 12.4638L14.3841 12.315L14.4247 12.1663L14.5993 11.9965L14.7739 11.8267L14.9486 11.7777L15.1234 11.7286L15.2905 11.7516L15.4575 11.7745L15.5597 11.8275L15.6619 11.8804L15.7685 11.9862L15.875 12.0919L15.9431 12.2406L16.0112 12.3894V12.5939V12.7985L15.9425 12.9472L15.8738 13.096L15.7671 13.1963L15.6603 13.2966L15.5305 13.3496L15.4006 13.4027L15.2707 13.4234L15.1409 13.4441L14.9672 13.3973H14.9671ZM10.4887 3.73365L13.8218 1.79052L13.8227 1.75625L13.8235 1.72198L13.6645 1.56929L13.5055 1.41659L13.3541 1.37112L13.2027 1.32565H13.0734H12.9441L12.818 1.3691L12.6918 1.41254L9.09266 3.51129L5.49347 5.61003L5.45822 5.6434L5.42297 5.67677H6.28932H7.15567L10.4887 3.73365ZM12.6177 4.48608L14.6583 3.29538L14.6692 3.26355L14.6799 3.23171L14.4696 2.87157L14.2592 2.51142L14.2113 2.52984L14.1634 2.54827L11.5352 4.08014L8.90706 5.61201L8.87181 5.64439L8.83656 5.67677H9.70678H10.577L12.6177 4.48608ZM16.0498 5.65748V5.63817L15.5831 4.82072L15.1163 4.00327H15.1043H15.0922L13.6932 4.81923L12.2942 5.63519L12.2734 5.65599L12.2527 5.67677H14.1512H16.0498L16.0498 5.65748Z" fill="black"/>
</g>
<defs>
<clipPath id="clip0_615_262">
<rect width="19" height="19" fill="white" transform="translate(0.5 0.5)"/>
</clipPath>
</defs>
</svg>
